<?xml version="1.0"?>
<svg width="1280" height="1024" xmlns="http://www.w3.org/2000/svg">
<g>
<title>Borders</title>
<line id="north" y2="50" x2="1230" y1="50" x1="50" stroke-width="5" stroke="#666666"/>
<line id="east" y2="974" x2="1230" y1="50" x1="1230" stroke-width="5" stroke="#666666"/>
<line id="south" y2="974" x2="50" y1="974" x1="1230" stroke-width="5" stroke="#666666"/>
<line id="west" y2="50" x2="50" y1="974" x1="50" stroke-width="5" stroke="#666666"/>
<line id="trip" y2="461.62300000000016" x2="826.7409999999999" y1="106.0300000000001" x1="826.7409999999999" stroke-width="5" stroke="#666666"/>
<line id="trip" y2="106.0300000000001" x2="43.62699999999958" y1="497.90799999999984" x1="43.62699999999958" stroke-width="5" stroke="#666666"/>
<line id="trip" y2="497.90799999999984" x2="759.7660000000006" y1="236.47900000000044" x1="759.7660000000006" stroke-width="5" stroke="#666666"/>
<line id="trip" y2="236.47900000000044" x2="570.1210000000008" y1="554.0169999999999" x1="570.1210000000008" stroke-width="5" stroke="#666666"/>
<line id="trip" y2="554.0169999999999" x2="233.83600000000013" y1="177.71500000000032" x1="233.83600000000013" stroke-width="5" stroke="#666666"/>
<line id="trip" y2="177.71500000000032" x2="606.3579999999995" y1="224.44299999999956" x1="606.3579999999995" stroke-width="5" stroke="#666666"/>
<line id="trip" y2="224.44299999999956" x2="728.6050000000001" y1="496.84599999999983" x1="728.6050000000001" stroke-width="5" stroke="#666666"/>
<line id="trip" y2="496.84599999999983" x2="645.9790000000004" y1="249.75399999999968" x1="645.9790000000004" stroke-width="5" stroke="#666666"/>
<line id="trip" y2="249.75399999999968" x2="669.6669999999992" y1="502.33299999999963" x1="669.6669999999992" stroke-width="5" stroke="#666666"/>
<line id="trip" y2="502.33299999999963" x2="197.74000000000007" y1="381.79600000000005" x1="197.74000000000007" stroke-width="5" stroke="#666666"/>
<line id="trip" y2="381.79600000000005" x2="512.029" y1="556.141" x1="512.029" stroke-width="5" stroke="#666666"/>
<line id="trip" y2="556.141" x2="367.64499999999987" y1="69.922" x1="367.64499999999987" stroke-width="5" stroke="#666666"/>
<line id="trip" y2="69.922" x2="213.10899999999933" y1="630.6579999999999" x1="213.10899999999933" stroke-width="5" stroke="#666666"/>
<line id="trip" y2="630.6579999999999" x2="540.2290000000004" y1="110.80900000000028" x1="540.2290000000004" stroke-width="5" stroke="#666666"/>
<line id="trip" y2="110.80900000000028" x2="884.692" y1="421.4439999999995" x1="884.692" stroke-width="5" stroke="#666666"/>
<line id="trip" y2="421.4439999999995" x2="219.17200000000022" y1="402.85900000000004" x1="219.17200000000022" stroke-width="5" stroke="#666666"/>
<line id="trip" y2="402.85900000000004" x2="181.80700000000013" y1="466.7559999999995" x1="181.80700000000013" stroke-width="5" stroke="#666666"/>
<line id="trip" y2="466.7559999999995" x2="567.3009999999994" y1="223.20399999999992" x1="567.3009999999994" stroke-width="5" stroke="#666666"/>
<line id="trip" y2="223.20399999999992" x2="836.3289999999996" y1="488.70399999999995" x1="836.3289999999996" stroke-width="5" stroke="#666666"/>
<line id="trip" y2="488.70399999999995" x2="185.75500000000096" y1="399.3189999999995" x1="185.75500000000096" stroke-width="5" stroke="#666666"/>
<line id="trip" y2="399.3189999999995" x2="574.6330000000004" y1="333.1210000000003" x1="574.6330000000004" stroke-width="5" stroke="#666666"/>
<line id="trip" y2="333.1210000000003" x2="214.2370000000007" y1="503.5720000000005" x1="214.2370000000007" stroke-width="5" stroke="#666666"/>
<line id="trip" y2="503.5720000000005" x2="207.89200000000045" y1="636.3220000000005" x1="207.89200000000045" stroke-width="5" stroke="#666666"/>
<line id="trip" y2="636.3220000000005" x2="515.4130000000001" y1="286.56999999999937" x1="515.4130000000001" stroke-width="5" stroke="#666666"/>
<line id="trip" y2="286.56999999999937" x2="989.0319999999994" y1="429.2320000000002" x1="989.0319999999994" stroke-width="5" stroke="#666666"/>
<line id="trip" y2="429.2320000000002" x2="526.9749999999992" y1="156.4749999999995" x1="526.9749999999992" stroke-width="5" stroke="#666666"/>
<line id="trip" y2="156.4749999999995" x2="195.48399999999933" y1="504.9879999999997" x1="195.48399999999933" stroke-width="5" stroke="#666666"/>
<line id="trip" y2="504.9879999999997" x2="740.4490000000006" y1="587.4699999999999" x1="740.4490000000006" stroke-width="5" stroke="#666666"/>
<line id="trip" y2="587.4699999999999" x2="811.5129999999992" y1="289.2249999999995" x1="811.5129999999992" stroke-width="5" stroke="#666666"/>
<line id="trip" y2="289.2249999999995" x2="531.0640000000008" y1="259.8430000000001" x1="531.0640000000008" stroke-width="5" stroke="#666666"/>
<line id="trip" y2="259.8430000000001" x2="153.8889999999991" y1="557.3799999999997" x1="153.8889999999991" stroke-width="5" stroke="#666666"/>
<line id="trip" y2="557.3799999999997" x2="136.2639999999991" y1="293.4729999999997" x1="136.2639999999991" stroke-width="5" stroke="#666666"/>
<line id="trip" y2="293.4729999999997" x2="203.2390000000003" y1="52.399000000000584" x1="203.2390000000003" stroke-width="5" stroke="#666666"/>
<line id="trip" y2="52.399000000000584" x2="686.5869999999999" y1="172.22800000000052" x1="686.5869999999999" stroke-width="5" stroke="#666666"/>
<line id="trip" y2="172.22800000000052" x2="406.98399999999936" y1="93.99400000000048" x1="406.98399999999936" stroke-width="5" stroke="#666666"/>
<line id="trip" y2="93.99400000000048" x2="372.8620000000007" y1="376.8400000000003" x1="372.8620000000007" stroke-width="5" stroke="#666666"/>
<line id="trip" y2="376.8400000000003" x2="330.42100000000045" y1="411.88600000000037" x1="330.42100000000045" stroke-width="5" stroke="#666666"/>
<line id="trip" y2="411.88600000000037" x2="531.769" y1="46.91199999999954" x1="531.769" stroke-width="5" stroke="#666666"/>
<line id="trip" y2="46.91199999999954" x2="886.6659999999995" y1="160.54600000000008" x1="886.6659999999995" stroke-width="5" stroke="#666666"/>
<line id="trip" y2="160.54600000000008" x2="652.8879999999992" y1="659.8629999999997" x1="652.8879999999992" stroke-width="5" stroke="#666666"/>
<line id="trip" y2="659.8629999999997" x2="662.3350000000003" y1="182.67100000000008" x1="662.3350000000003" stroke-width="5" stroke="#666666"/>
<line id="trip" y2="182.67100000000008" x2="304.9000000000008" y1="48.32800000000001" x1="304.9000000000008" stroke-width="5" stroke="#666666"/>
<line id="trip" y2="48.32800000000001" x2="976.2010000000002" y1="223.55800000000036" x1="976.2010000000002" stroke-width="5" stroke="#666666"/>
<line id="trip" y2="223.55800000000036" x2="168.41200000000032" y1="296.30500000000063" x1="168.41200000000032" stroke-width="5" stroke="#666666"/>
<line id="trip" y2="296.30500000000063" x2="240.8859999999997" y1="514.9000000000005" x1="240.8859999999997" stroke-width="5" stroke="#666666"/>
<line id="trip" y2="514.9000000000005" x2="412.0599999999995" y1="404.8060000000005" x1="412.0599999999995" stroke-width="5" stroke="#666666"/>
<line id="trip" y2="404.8060000000005" x2="351.7119999999999" y1="400.0270000000003" x1="351.7119999999999" stroke-width="5" stroke="#666666"/>
<line id="trip" y2="400.0270000000003" x2="619.3299999999994" y1="569.2389999999996" x1="619.3299999999994" stroke-width="5" stroke="#666666"/>
<line id="trip" y2="569.2389999999996" x2="153.8889999999991" y1="395.77900000000017" x1="153.8889999999991" stroke-width="5" stroke="#666666"/>
<line id="trip" y2="395.77900000000017" x2="496.51900000000006" y1="174.52900000000017" x1="496.51900000000006" stroke-width="5" stroke="#666666"/>
<line id="trip" y2="174.52900000000017" x2="93.4000000000008" y1="494.1909999999997" x1="93.4000000000008" stroke-width="5" stroke="#666666"/>
<line id="trip" y2="494.1909999999997" x2="444.3489999999994" y1="97.8880000000002" x1="444.3489999999994" stroke-width="5" stroke="#666666"/>
<line id="trip" y2="97.8880000000002" x2="358.48000000000013" y1="612.9579999999996" x1="358.48000000000013" stroke-width="5" stroke="#666666"/>
<line id="trip" y2="612.9579999999996" x2="850.9929999999995" y1="427.2849999999997" x1="850.9929999999995" stroke-width="5" stroke="#666666"/>
<line id="trip" y2="427.2849999999997" x2="925.2999999999996" y1="367.10500000000036" x1="925.2999999999996" stroke-width="5" stroke="#666666"/>
<line id="trip" y2="367.10500000000036" x2="48.98499999999912" y1="544.2819999999999" x1="48.98499999999912" stroke-width="5" stroke="#666666"/>
<line id="trip" y2="544.2819999999999" x2="598.6030000000005" y1="376.3090000000003" x1="598.6030000000005" stroke-width="5" stroke="#666666"/>
<line id="trip" y2="376.3090000000003" x2="360.45399999999955" y1="418.78899999999936" x1="360.45399999999955" stroke-width="5" stroke="#666666"/>
<line id="trip" y2="418.78899999999936" x2="301.09300000000064" y1="641.4549999999998" x1="301.09300000000064" stroke-width="5" stroke="#666666"/>
<line id="trip" y2="641.4549999999998" x2="1014.553000000001" y1="112.57899999999992" x1="1014.553000000001" stroke-width="5" stroke="#666666"/>
<line id="trip" y2="112.57899999999992" x2="902.1759999999994" y1="477.19900000000035" x1="902.1759999999994" stroke-width="5" stroke="#666666"/>
<line id="trip" y2="477.19900000000035" x2="432.08200000000096" y1="644.9950000000003" x1="432.08200000000096" stroke-width="5" stroke="#666666"/>
<line id="trip" y2="644.9950000000003" x2="671.5" y1="518.2630000000001" x1="671.5" stroke-width="5" stroke="#666666"/>
<line id="trip" y2="518.2630000000001" x2="531.346" y1="119.12799999999976" x1="531.346" stroke-width="5" stroke="#666666"/>
<line id="trip" y2="119.12799999999976" x2="777.3910000000006" y1="355.4229999999999" x1="777.3910000000006" stroke-width="5" stroke="#666666"/>
<line id="trip" y2="355.4229999999999" x2="337.89400000000006" y1="524.4579999999996" x1="337.89400000000006" stroke-width="5" stroke="#666666"/>
<line id="trip" y2="524.4579999999996" x2="317.5899999999993" y1="733.141" x1="317.5899999999993" stroke-width="5" stroke="#666666"/>
<line id="trip" y2="733.141" x2="483.97000000000025" y1="41.95599999999977" x1="483.97000000000025" stroke-width="5" stroke="#666666"/>
<line id="trip" y2="41.95599999999977" x2="688.9839999999994" y1="136.1200000000004" x1="688.9839999999994" stroke-width="5" stroke="#666666"/>
<line id="trip" y2="136.1200000000004" x2="762.3040000000008" y1="524.281" x1="762.3040000000008" stroke-width="5" stroke="#666666"/>
<line id="trip" y2="524.281" x2="296.2989999999998" y1="62.84200000000014" x1="296.2989999999998" stroke-width="5" stroke="#666666"/>
<line id="trip" y2="62.84200000000014" x2="689.6890000000006" y1="547.999" x1="689.6890000000006" stroke-width="5" stroke="#666666"/>
<line id="trip" y2="547.999" x2="83.38899999999909" y1="257.89599999999956" x1="83.38899999999909" stroke-width="5" stroke="#666666"/>
<line id="trip" y2="257.89599999999956" x2="346.7770000000004" y1="529.5910000000002" x1="346.7770000000004" stroke-width="5" stroke="#666666"/>
<line id="trip" y2="529.5910000000002" x2="1002.2860000000005" y1="461.62300000000016" x1="826.7409999999999" stroke-width="5" stroke="#666666"/>
<g>
</svg>
